# xmcd CD database file
#
# Track frame offsets:
#	150
#	23325
#	45670
#	60015
#	71817
#	87955
#	105872
#	130132
#	146225
#	158497
#	179555
#	191885
#	212265
#	232342
#	247590
#	267335
#	286562
#	300647
#	313642
#
# Disc length: 4308 seconds
#
# Revision: 1
# Processed by: cddbd v1.5.2PL0 Copyright (c) Steve Scherf et al.
# Submitted via: CDex 1.83
#
DISCID=f810d213
DTITLE=David Bowie - Sound and Vision 1/4
DYEAR=1900
DGENRE=Blues
TTITLE0=Space Oddity [Demo]
TTITLE1=Wild Eyed-Boy From Freecloud [B-Side]
TTITLE2=The Prettiest Star [Single]
TTITLE3=London Bye Ta-Ta [Stereo]
TTITLE4=Black Country Rock
TTITLE5=The Man Who Sold The World
TTITLE6=The Bewlay Brothers
TTITLE7=Changes
TTITLE8=Round And Round [Alternate Vocal]
TTITLE9=Moonage Daydream
TTITLE10=John, I'm Only Dancing [Sax Version]
TTITLE11=Drive-In Saturday
TTITLE12=Panic In Detroit
TTITLE13=Ziggy Stardust [Live '73]
TTITLE14=White Light/White Heat [Live '73]
TTITLE15=Rock N' Roll Suicide [Live '73]
TTITLE16=Anyway, Anyhow, Anywhere
TTITLE17=Sorrow
TTITLE18=Don't Bring Me Down
EXTD=
EXTT0=
EXTT1=
EXTT2=
EXTT3=
EXTT4=
EXTT5=
EXTT6=
EXTT7=
EXTT8=
EXTT9=
EXTT10=
EXTT11=
EXTT12=
EXTT13=
EXTT14=
EXTT15=
EXTT16=
EXTT17=
EXTT18=
PLAYORDER=
